<svg width="320" height="75" viewBox="0 0 320 75" fill="none" xmlns="http://www.w3.org/2000/svg">
<g clip-path="url(#clip0_5_708)">
<path d="M319 65.0125V11.8281H284.409V19.9045H309.366V34.3432H286.201V42.4195H309.366V56.9362H284.202V65.0125H319Z" fill="#FDFDFD"/>
<path d="M238.096 11.8281L251.938 53.6901H252.483L266.299 11.8281H276.894L258.144 65.0125H246.25L227.527 11.8281H238.096Z" fill="#111111"/>
<path d="M185.478 65.0125V11.8281H220.069V19.9045H195.113V34.3432H218.277V42.4195H195.113V56.9362H220.276V65.0125H185.478Z" fill="#111111"/>
<path d="M134.288 19.9045V11.8281H176.721V19.9045H160.283V65.0125H150.726V19.9045H134.288Z" fill="#111111"/>
<path d="M115.751 25.3477C115.509 23.0797 114.488 21.3138 112.687 20.05C110.904 18.7862 108.584 18.1543 105.727 18.1543C103.719 18.1543 101.997 18.4572 100.56 19.0632C99.1226 19.6691 98.0233 20.4915 97.2615 21.5302C96.4998 22.569 96.1102 23.7549 96.0929 25.088C96.0929 26.196 96.344 27.1568 96.846 27.9705C97.3654 28.7842 98.0666 29.4767 98.9495 30.048C99.8325 30.602 100.811 31.0695 101.884 31.4504C102.957 31.8312 104.039 32.1515 105.13 32.4112L110.116 33.6577C112.124 34.1252 114.055 34.7571 115.907 35.5535C117.777 36.3498 119.448 37.354 120.919 38.5659C122.408 39.7777 123.585 41.2407 124.451 42.9546C125.317 44.6686 125.749 46.6768 125.749 48.9794C125.749 52.0957 124.953 54.8397 123.36 57.2116C121.768 59.5661 119.465 61.4099 116.453 62.7429C113.457 64.0587 109.831 64.7166 105.572 64.7166C101.434 64.7166 97.8415 64.076 94.7945 62.7949C91.7648 61.5138 89.3929 59.644 87.679 57.1856C85.9823 54.7272 85.0648 51.7321 84.9263 48.2003H94.4049C94.5434 50.0528 95.1148 51.5936 96.1189 52.8228C97.123 54.052 98.4301 54.9696 100.04 55.5755C101.668 56.1815 103.485 56.4844 105.494 56.4844C107.589 56.4844 109.424 56.1728 110.999 55.5495C112.592 54.909 113.838 54.026 114.739 52.9007C115.639 51.7581 116.098 50.425 116.115 48.9015C116.098 47.5165 115.691 46.3738 114.894 45.4736C114.098 44.556 112.981 43.7943 111.544 43.1883C110.125 42.5651 108.463 42.0111 106.558 41.5263L100.508 39.9682C96.1276 38.8429 92.665 37.1376 90.1201 34.8523C87.5924 32.5497 86.3286 29.494 86.3286 25.6852C86.3286 22.5517 87.1769 19.8076 88.8736 17.4531C90.5875 15.0986 92.9161 13.2721 95.8592 11.9736C98.8023 10.6579 102.135 10 105.857 10C109.631 10 112.938 10.6579 115.777 11.9736C118.634 13.2721 120.876 15.0813 122.503 17.4012C124.131 19.7037 124.97 22.3526 125.022 25.3477H115.751Z" fill="#111111"/>
<path d="M41.0488 65.0125V11.8281H75.6395V19.9045H50.6833V34.3432H73.8476V42.4195H50.6833V56.9362H75.8472V65.0125H41.0488Z" fill="#111111"/>
<path d="M-1 65.0125V11.8281H33.0713V19.9045H8.63448V34.3432H30.7341V42.4195H8.63448V65.0125H-1Z" fill="#111111"/>
</g>
<defs>
<clipPath id="clip0_5_708">
<rect width="320" height="75" fill="white"/>
</clipPath>
</defs>
</svg>
